<?xml version="1.0" encoding="utf-8"?>
<!-- Generator: Adobe Illustrator 25.0.0, SVG Export Plug-In . SVG Version: 6.00 Build 0)  -->
<svg version="1.1" id="Layer_1" xmlns="http://www.w3.org/2000/svg" xmlns:xlink="http://www.w3.org/1999/xlink" x="0px" y="0px"
	 viewBox="0 0 682 682" style="enable-background:new 0 0 682 682;" xml:space="preserve">
<style type="text/css">
	.st0{fill:#727270;}
</style>
<path class="st0" d="M572.5,46H108.9C60.4,46,21,85.4,21,133.9v283.7c0,48.4,39.3,87.7,87.6,87.9v128.7l185-128.7h278.9
	c48.5,0,87.9-39.4,87.9-87.9V133.9C660.4,85.4,620.9,46,572.5,46z M622.9,417.6c0,27.8-22.6,50.4-50.4,50.4H281.8L146,562.5V468
	h-37.2c-27.8,0-50.4-22.6-50.4-50.4V133.9c0-27.8,22.6-50.4,50.4-50.4h463.6c27.8,0,50.4,22.6,50.4,50.4V417.6z"/>
<path class="st0" d="M192.1,178.3h297.1v37.5H192.1V178.3z"/>
<path class="st0" d="M192.1,258.3h297.1v37.5H192.1V258.3z"/>
<path class="st0" d="M192.1,338.2h297.1v37.5H192.1V338.2z"/>
</svg>
