<?xml version="1.0" encoding="utf-8"?>
<!-- Generator: Adobe Illustrator 24.3.0, SVG Export Plug-In . SVG Version: 6.00 Build 0)  -->
<svg version="1.1" id="Layer_1" xmlns="http://www.w3.org/2000/svg" xmlns:xlink="http://www.w3.org/1999/xlink" x="0px" y="0px"
	 viewBox="0 0 512 512" style="enable-background:new 0 0 512 512;" xml:space="preserve">
<style type="text/css">
	.st0{fill:#727270;}
	.st1{fill:#2AF598;}
</style>
<g>
	<path class="st0" d="M432.5,512h-37.8c-8,0-14.5-6.5-14.5-14.5s6.5-14.5,14.5-14.5h37.8c27.8,0,50.5-22.6,50.5-50.5V79.5
		c0-27.8-22.6-50.5-50.5-50.5H214.4c-8,0-14.5-6.5-14.5-14.5S206.3,0,214.4,0h218.1C476.3,0,512,35.7,512,79.5v352.9
		C512,476.3,476.3,512,432.5,512z"/>
	<path class="st0" d="M289.7,512H79.5C35.7,512,0,476.3,0,432.5V79.5C0,35.7,35.7,0,79.5,0h32.7c8,0,14.5,6.5,14.5,14.5
		S120.2,29,112.2,29H79.5C51.7,29,29,51.7,29,79.5v352.9c0,27.8,22.6,50.5,50.5,50.5h210.2c8,0,14.5,6.5,14.5,14.5
		C304.2,505.5,297.7,512,289.7,512z"/>
</g>
<path class="st1" d="M359.6,102.1H152.4c-27.8,0-50.3,22.5-50.3,50.3v207.2c0,27.8,22.5,50.3,50.3,50.3h207.2
	c27.8,0,50.3-22.5,50.3-50.3V152.4C409.9,124.6,387.4,102.1,359.6,102.1z M256,330.8c-41.3,0-74.8-33.5-74.8-74.8
	s33.5-74.8,74.8-74.8s74.8,33.5,74.8,74.8S297.3,330.8,256,330.8z"/>
<g>
	<path class="st0" d="M359.6,424.5H152.4c-35.8,0-64.9-29.1-64.9-64.9V152.4c0-35.8,29.1-64.9,64.9-64.9h207.2
		c35.8,0,64.9,29.1,64.9,64.9v207.2C424.5,395.4,395.4,424.5,359.6,424.5z M152.4,116.6c-19.8,0-35.8,16.1-35.8,35.8v207.2
		c0,19.8,16.1,35.8,35.8,35.8h207.2c19.8,0,35.8-16.1,35.8-35.8V152.4c0-19.8-16.1-35.8-35.8-35.8L152.4,116.6L152.4,116.6z
		 M256,345.3c-49.2,0-89.3-40.1-89.3-89.3s40.1-89.3,89.3-89.3s89.3,40.1,89.3,89.3S305.2,345.3,256,345.3z M256,195.7
		c-33.2,0-60.3,27-60.3,60.3s27,60.3,60.3,60.3s60.3-27,60.3-60.3S289.2,195.7,256,195.7z"/>
	<circle class="st0" cx="346.4" cy="164.5" r="20.4"/>
</g>
</svg>
