<svg xmlns="http://www.w3.org/2000/svg" xmlns:xlink="http://www.w3.org/1999/xlink" viewBox="0 0 427.24 358.91"><defs><style>.cls-1{fill:#08aeea;}.cls-2,.cls-3,.cls-4{fill-rule:evenodd;}.cls-2{fill:url(#linear-gradient);}.cls-3{fill:#727270;}.cls-4{fill:#fefefe;}</style><linearGradient id="linear-gradient" x1="244.11" y1="150.58" x2="146.32" y2="150.42" gradientUnits="userSpaceOnUse"><stop offset="0" stop-color="#08aeea"/><stop offset="1" stop-color="#2af598"/></linearGradient></defs><g id="Layer_2" data-name="Layer 2"><g id="Layer_1-2" data-name="Layer 1"><path class="cls-1" d="M55,314.2a28.73,28.73,0,0,0-25.55-14.52A29,29,0,0,0,3.89,314.14,29.58,29.58,0,0,0,0,329.35a31.54,31.54,0,0,0,3.62,15.16,27.49,27.49,0,0,0,9.92,10.56,26.76,26.76,0,0,0,14.2,3.84,26.18,26.18,0,0,0,14-3.79,26.85,26.85,0,0,0,7.09-6.34v4.8a5.08,5.08,0,0,0,8.64,3.56,5,5,0,0,0,1.39-3.56V329.35A29.62,29.62,0,0,0,55,314.2Zm-8.32,25.71a20,20,0,0,1-7,7.42,19,19,0,0,1-10.18,2.72,19.18,19.18,0,0,1-10.09-2.72,19.58,19.58,0,0,1-7.14-7.42A21.23,21.23,0,0,1,9.6,329.35a21.49,21.49,0,0,1,2.62-10.67,19.48,19.48,0,0,1,7.14-7.41,19.19,19.19,0,0,1,10.09-2.73,19,19,0,0,1,10.18,2.73,19.85,19.85,0,0,1,7,7.41,21.6,21.6,0,0,1,2.62,10.67A21.34,21.34,0,0,1,46.68,339.91Z"/><path class="cls-1" d="M106.91,358.91a29.14,29.14,0,0,1-15-3.9A28.67,28.67,0,0,1,81.36,344.4a29.62,29.62,0,0,1-3.9-15.15,31.05,31.05,0,0,1,3.63-15.1A27.87,27.87,0,0,1,91,303.58a26.5,26.5,0,0,1,14.2-3.89,27,27,0,0,1,12.11,2.72,24.79,24.79,0,0,1,9,7.42V280.16a4.83,4.83,0,0,1,1.44-3.63,5,5,0,0,1,8.59,3.63v49.19a29.72,29.72,0,0,1-3.89,15.15,28.41,28.41,0,0,1-10.56,10.57A29.53,29.53,0,0,1,106.91,358.91Zm0-8.86a19,19,0,0,0,10.19-2.72,19.81,19.81,0,0,0,7.05-7.47,21.64,21.64,0,0,0,2.61-10.61,21.27,21.27,0,0,0-2.61-10.62,20,20,0,0,0-7.05-7.36,20.18,20.18,0,0,0-20.27,0,19.66,19.66,0,0,0-7.15,7.36,21.27,21.27,0,0,0-2.61,10.62,21.64,21.64,0,0,0,2.61,10.61,19.46,19.46,0,0,0,7.15,7.47A19.14,19.14,0,0,0,106.91,350.05Z"/><path class="cls-1" d="M187.37,358.91a29.18,29.18,0,0,1-15-3.9,28.82,28.82,0,0,1-10.56-10.61,29.62,29.62,0,0,1-3.89-15.15,31.16,31.16,0,0,1,3.62-15.1,27.82,27.82,0,0,1,9.93-10.57,26.44,26.44,0,0,1,14.19-3.89,27,27,0,0,1,12.11,2.72,24.9,24.9,0,0,1,9,7.42V280.16a4.83,4.83,0,0,1,1.44-3.63,5,5,0,0,1,3.57-1.38,4.75,4.75,0,0,1,5,5v49.19a29.62,29.62,0,0,1-3.9,15.15,28.41,28.41,0,0,1-10.56,10.57A29.5,29.5,0,0,1,187.37,358.91Zm0-8.86a19,19,0,0,0,10.19-2.72,19.71,19.71,0,0,0,7-7.47,21.64,21.64,0,0,0,2.61-10.61,21.27,21.27,0,0,0-2.61-10.62,19.91,19.91,0,0,0-7-7.36,19,19,0,0,0-10.19-2.73,19.21,19.21,0,0,0-10.09,2.73,19.73,19.73,0,0,0-7.15,7.36,21.27,21.27,0,0,0-2.61,10.62,21.64,21.64,0,0,0,2.61,10.61,19.53,19.53,0,0,0,7.15,7.47A19.2,19.2,0,0,0,187.37,350.05Z"/><path class="cls-1" d="M267.71,358.91a29.26,29.26,0,0,1-15.15-3.9,28.11,28.11,0,0,1-10.4-10.56,30,30,0,0,1-3.79-15.1A31.49,31.49,0,0,1,242.05,314a26.91,26.91,0,0,1,10.14-10.51A28.6,28.6,0,0,1,267,299.69a26.44,26.44,0,0,1,21.12,9.82,3.43,3.43,0,0,1,1,3.2,5,5,0,0,1-2.19,3,3.83,3.83,0,0,1-3,.64,5.84,5.84,0,0,1-3-1.7A18,18,0,0,0,267,308.54a18.68,18.68,0,0,0-9.93,2.62,18,18,0,0,0-6.67,7.31,23.6,23.6,0,0,0-2.4,10.88A22,22,0,0,0,250.48,340a18.9,18.9,0,0,0,17.23,10.08,22.85,22.85,0,0,0,6.89-1,15.44,15.44,0,0,0,5.49-3.09,5.76,5.76,0,0,1,3.26-1.39,4,4,0,0,1,2.93,1,4.61,4.61,0,0,1,1.87,3.15,3.56,3.56,0,0,1-1.23,3Q279.24,358.92,267.71,358.91Z"/><path class="cls-1" d="M362.62,314.2a28.76,28.76,0,0,0-10.5-10.62,29.66,29.66,0,0,0-40.6,10.56,29.58,29.58,0,0,0-3.89,15.21,31.42,31.42,0,0,0,3.62,15.16,27.49,27.49,0,0,0,9.92,10.56,26.72,26.72,0,0,0,14.19,3.84,26.16,26.16,0,0,0,14-3.79,26.54,26.54,0,0,0,7.09-6.34v4.8a4.94,4.94,0,0,0,5,5,4.76,4.76,0,0,0,3.62-1.45,4.92,4.92,0,0,0,1.39-3.56V329.35A29.62,29.62,0,0,0,362.62,314.2Zm-8.31,25.71a20,20,0,0,1-7.05,7.42,20.24,20.24,0,0,1-20.27,0,19.6,19.6,0,0,1-7.15-7.42,21.33,21.33,0,0,1-2.61-10.56,21.6,21.6,0,0,1,2.61-10.67,19.5,19.5,0,0,1,7.15-7.41,20.18,20.18,0,0,1,20.27,0,19.85,19.85,0,0,1,7.05,7.41,21.59,21.59,0,0,1,2.6,10.67A21.33,21.33,0,0,1,354.31,339.91Z"/><path class="cls-1" d="M427.13,306a4.3,4.3,0,0,1-1.33,2.24,3.8,3.8,0,0,1-2.19.86,9.29,9.29,0,0,1-2.77-.22,28.44,28.44,0,0,0-11.8.32,16.39,16.39,0,0,0-8.16,4.7,12,12,0,0,0-3,8.33v31.37a5,5,0,0,1-1.22,3.62,4.91,4.91,0,0,1-3.68,1.28,5,5,0,0,1-3.63-1.23,4.82,4.82,0,0,1-1.29-3.67V305a4.48,4.48,0,0,1,4.92-4.91,4.33,4.33,0,0,1,4.9,4.91v2.82a22.6,22.6,0,0,1,6.46-5.37,23,23,0,0,1,11.57-3c3.92,0,6.87.63,8.86,1.87S427.55,304.13,427.13,306Z"/><path class="cls-2" d="M235.08,132.93a47.87,47.87,0,0,0,27.44-43.6,50.3,50.3,0,0,0-21.11-40.8c-1.41-.7-4.22-2.11-4.22,3.52l9.14,31-9.14,23.21H190.05L180.92,83.7l9.13-31.65c0-5.63-3.51-3.52-4.92-2.81a49.29,49.29,0,0,0-20.39,40.09c0,19,9.85,35.17,26,42.91,1.4.69,4.21,2.1,4.21,5.63v55.56c0,3.52-2.1,3.52-2.1,3.52a7,7,0,0,0-7,7v42.2a7.55,7.55,0,0,0,7,7h40.8c4.22,0,7.74-3.51,7.74-7V204c0-4.23-3.52-7-7.74-7,0,0-1.4-.7-1.4-3.52V137.87C232.27,133.63,234.38,133.63,235.08,132.93Zm-4.92,102.7-8.45,4.92-8.43,4.94-7.73-4.94-8.47-4.92v-19l8.47-4.92,7.73-4.92,8.43,4.92,8.45,4.92Z"/><path class="cls-3" d="M361.7,140.68v68.93L348.32,211v22.51c0,4.21-2.81,7.73-7,7.73H304.73c-4.25,0-7.06-3.52-7.06-7.73V210.31H249.14V204h0c0-4.23-2.11-7.74-4.92-10.55h0a18.56,18.56,0,0,0-4.22-3.53V139.28c8.43-4.94,16.18-11.26,21.82-19.71,1.39-2.81,2.1-4.92,3.5-7h55.57l-9.14-65.41c-7-13.37-12-16.19-25.33-16.19H142.22c-13.35,0-19,2.82-25.32,16.19l-10.54,65.41h55.56a27.87,27.87,0,0,0,3.52,6.33c4.91,8.45,12.66,15.47,21.81,20.41v50.63a21.24,21.24,0,0,0-4.92,3.53h0A14.31,14.31,0,0,0,178.1,204v6.32H129.57v23.22c0,4.21-2.81,7.73-7,7.73H86c-4.21,0-7-3.52-7-7.73V211l-13.37-1.41V140.68c0-9.14,1.4-16.18,6.34-24.62L96.52,20.4C102.14,9.14,115.5,0,128.17,0H299.78c12.67,0,26.73,9.14,31.67,20.4l23.9,95.66c4.23,8.44,6.35,15.48,6.35,24.62Z"/><path class="cls-4" d="M337.78,161.07a23,23,0,0,0-23.22-23.21c-13.36,0-23.22,9.85-23.22,23.21,0,12.66,9.86,22.52,23.22,22.52,12.66,0,23.22-9.86,23.22-22.52Z"/><path class="cls-4" d="M89.47,161.07a23,23,0,0,1,23.21-23.21c13.38,0,23.21,9.85,23.21,23.21,0,12.66-9.83,22.52-23.21,22.52-12.65,0-23.21-9.86-23.21-22.52Z"/></g></g></svg>