<svg xmlns="http://www.w3.org/2000/svg" xmlns:xlink="http://www.w3.org/1999/xlink" viewBox="0 0 671.71 171.48"><defs><style>.cls-1{fill:#08aeea;}.cls-2,.cls-3,.cls-4{fill-rule:evenodd;}.cls-2{fill:url(#linear-gradient);}.cls-3{fill:#727270;}.cls-4{fill:#fefefe;}</style><linearGradient id="linear-gradient" x1="120.92" y1="101.97" x2="54.7" y2="101.87" gradientUnits="userSpaceOnUse"><stop offset="0" stop-color="#08aeea"/><stop offset="1" stop-color="#2af598"/></linearGradient></defs><g id="Layer_2" data-name="Layer 2"><g id="Layer_1-2" data-name="Layer 1"><path class="cls-1" d="M309.91,83a28.78,28.78,0,0,0-49.68,0,28.7,28.7,0,0,0-3.78,14.78A30.54,30.54,0,0,0,260,112.45a26.61,26.61,0,0,0,9.64,10.26,26,26,0,0,0,13.8,3.74,25.5,25.5,0,0,0,13.64-3.68,26.1,26.1,0,0,0,6.9-6.17v4.66a4.78,4.78,0,0,0,4.87,4.88,4.65,4.65,0,0,0,3.52-1.41,4.8,4.8,0,0,0,1.35-3.47V97.72A28.9,28.9,0,0,0,309.91,83Zm-8.09,25A19.41,19.41,0,0,1,295,115.2a18.5,18.5,0,0,1-9.9,2.64,18.72,18.72,0,0,1-9.8-2.64,19.06,19.06,0,0,1-6.95-7.22,20.73,20.73,0,0,1-2.54-10.26,21,21,0,0,1,2.54-10.37,19.1,19.1,0,0,1,6.95-7.21,18.64,18.64,0,0,1,9.8-2.65,18.42,18.42,0,0,1,9.9,2.65,19.46,19.46,0,0,1,6.85,7.21,21,21,0,0,1,2.54,10.37A20.73,20.73,0,0,1,301.82,108Z"/><path class="cls-1" d="M360.36,126.45a28.3,28.3,0,0,1-14.57-3.79,27.91,27.91,0,0,1-10.26-10.32,28.74,28.74,0,0,1-3.79-14.72,30.1,30.1,0,0,1,3.53-14.68,27.06,27.06,0,0,1,9.64-10.27,25.72,25.72,0,0,1,13.79-3.78,26.25,26.25,0,0,1,11.78,2.64,24.15,24.15,0,0,1,8.76,7.21V49.91a4.7,4.7,0,0,1,1.4-3.53A4.85,4.85,0,0,1,389,49.91V97.72a28.8,28.8,0,0,1-3.79,14.73,27.6,27.6,0,0,1-10.26,10.26A28.69,28.69,0,0,1,360.36,126.45Zm0-8.61a18.48,18.48,0,0,0,9.91-2.65,19.13,19.13,0,0,0,6.84-7.26,20.92,20.92,0,0,0,2.54-10.31,20.56,20.56,0,0,0-2.54-10.32,19.36,19.36,0,0,0-6.84-7.16,19.71,19.71,0,0,0-19.71,0,19.18,19.18,0,0,0-6.95,7.16,20.66,20.66,0,0,0-2.54,10.32,21,21,0,0,0,2.54,10.31,19,19,0,0,0,6.95,7.26A18.64,18.64,0,0,0,360.36,117.84Z"/><path class="cls-1" d="M438.56,126.45A28.3,28.3,0,0,1,424,122.66a28,28,0,0,1-10.27-10.32,28.83,28.83,0,0,1-3.78-14.72,30.21,30.21,0,0,1,3.52-14.68,27.09,27.09,0,0,1,9.65-10.27,25.69,25.69,0,0,1,13.79-3.78,26.18,26.18,0,0,1,11.77,2.64,24.27,24.27,0,0,1,8.77,7.21V49.91a4.66,4.66,0,0,1,1.4-3.53,4.84,4.84,0,0,1,8.34,3.53V97.72a28.9,28.9,0,0,1-3.78,14.73,27.7,27.7,0,0,1-10.27,10.26A28.66,28.66,0,0,1,438.56,126.45Zm0-8.61a18.5,18.5,0,0,0,9.91-2.65,19.28,19.28,0,0,0,6.84-7.26,21,21,0,0,0,2.54-10.31,20.66,20.66,0,0,0-2.54-10.32,19.52,19.52,0,0,0-6.84-7.16,19.71,19.71,0,0,0-19.71,0,19.18,19.18,0,0,0-6.95,7.16,20.66,20.66,0,0,0-2.54,10.32,21,21,0,0,0,2.54,10.31,19,19,0,0,0,6.95,7.26A18.61,18.61,0,0,0,438.56,117.84Z"/><path class="cls-1" d="M516.65,126.45a28.38,28.38,0,0,1-14.72-3.79,27.41,27.41,0,0,1-10.12-10.27,29.21,29.21,0,0,1-3.68-14.67,30.68,30.68,0,0,1,3.58-14.94,26.22,26.22,0,0,1,9.85-10.21,27.91,27.91,0,0,1,14.37-3.68,25.72,25.72,0,0,1,20.53,9.54,3.35,3.35,0,0,1,1,3.11,4.87,4.87,0,0,1-2.13,2.9,3.74,3.74,0,0,1-3,.63,5.69,5.69,0,0,1-3-1.66,17.5,17.5,0,0,0-13.48-5.91A18.05,18.05,0,0,0,506.28,80a17.48,17.48,0,0,0-6.48,7.1,23,23,0,0,0-2.33,10.58A21.32,21.32,0,0,0,499.91,108a18.38,18.38,0,0,0,16.74,9.8,22.26,22.26,0,0,0,6.69-.93,15.07,15.07,0,0,0,5.34-3,5.68,5.68,0,0,1,3.17-1.35,3.91,3.91,0,0,1,2.85.93,4.42,4.42,0,0,1,1.81,3.06,3.42,3.42,0,0,1-1.19,3Q527.85,126.45,516.65,126.45Z"/><path class="cls-1" d="M608.9,83a27.91,27.91,0,0,0-24.83-14.11,28.16,28.16,0,0,0-24.84,14.06,28.7,28.7,0,0,0-3.78,14.78A30.54,30.54,0,0,0,559,112.45a26.61,26.61,0,0,0,9.64,10.26,26,26,0,0,0,13.8,3.74,25.52,25.52,0,0,0,13.64-3.68,26.06,26.06,0,0,0,6.89-6.17v4.66a4.94,4.94,0,0,0,8.4,3.47,4.8,4.8,0,0,0,1.35-3.47V97.72A28.8,28.8,0,0,0,608.9,83Zm-8.08,25A19.41,19.41,0,0,1,594,115.2a19.7,19.7,0,0,1-19.7,0,19,19,0,0,1-6.95-7.22,20.62,20.62,0,0,1-2.54-10.26,20.88,20.88,0,0,1,2.54-10.37,19,19,0,0,1,6.95-7.21,19.63,19.63,0,0,1,19.7,0,19.46,19.46,0,0,1,6.85,7.21,21,21,0,0,1,2.53,10.37A20.72,20.72,0,0,1,600.82,108Z"/><path class="cls-1" d="M671.6,75a4.23,4.23,0,0,1-1.3,2.18,3.74,3.74,0,0,1-2.13.84,9.13,9.13,0,0,1-2.69-.22,27.55,27.55,0,0,0-11.47.32,15.91,15.91,0,0,0-7.93,4.56,11.63,11.63,0,0,0-2.9,8.09v30.49a4.93,4.93,0,0,1-1.19,3.53,4.79,4.79,0,0,1-3.58,1.24,4.88,4.88,0,0,1-3.53-1.19,4.75,4.75,0,0,1-1.24-3.58V74.07a4.33,4.33,0,0,1,4.77-4.77,4.21,4.21,0,0,1,4.77,4.77v2.74a22.21,22.21,0,0,1,6.27-5.22,22.46,22.46,0,0,1,11.25-2.91q5.71,0,8.61,1.81C671.25,71.7,672,73.21,671.6,75Z"/><path class="cls-2" d="M119.1,32.87c-1-.48-2.86-1.43-2.86,2.38l6.19,21-6.19,15.72H84.32L78.13,56.68l6.19-21.43c0-3.81-2.38-2.38-3.33-1.9A33.37,33.37,0,0,0,67.17,60.5c0,12.86,6.68,23.82,17.63,29.05a4.26,4.26,0,0,1,2.85,3.81V131c0,2.38-1.43,2.38-1.43,2.38a4.77,4.77,0,0,0-4.76,4.77v28.57a5.11,5.11,0,0,0,4.76,4.76h27.64c2.85,0,5.24-2.37,5.24-4.76V138.15c0-2.87-2.39-4.77-5.24-4.77,0,0-1-.48-1-2.38V93.36c0-2.86,1.42-2.86,1.9-3.33A32.42,32.42,0,0,0,133.39,60.5,34.06,34.06,0,0,0,119.1,32.87Z"/><path class="cls-3" d="M200.56,95.27V142l-9.06,1v15.25c0,2.85-1.9,5.24-4.76,5.24H162c-2.88,0-4.78-2.39-4.78-5.24V142.43H124.33v-4.28h0A10.13,10.13,0,0,0,121,131h0a12.86,12.86,0,0,0-2.86-2.39V94.32A44.13,44.13,0,0,0,132.92,81a44.16,44.16,0,0,1,2.37-4.77h37.63l-6.19-44.29c-4.75-9.06-8.11-11-17.15-11H51.93c-9,0-12.85,1.9-17.15,11L27.64,76.21H65.27a18.37,18.37,0,0,0,2.38,4.29A37.62,37.62,0,0,0,82.42,94.32v34.29A14.75,14.75,0,0,0,79.08,131h0a9.69,9.69,0,0,0-2.85,7.15v4.28H43.36v15.72c0,2.85-1.9,5.24-4.76,5.24H13.82c-2.85,0-4.76-2.39-4.76-5.24V142.9L0,142V95.27c0-6.19,1-11,4.3-16.67L21,13.82C24.78,6.19,33.83,0,42.41,0H158.62c8.59,0,18.11,6.19,21.46,13.82L196.26,78.6c2.87,5.72,4.3,10.48,4.3,16.67Z"/><path class="cls-4" d="M184.36,109.08a15.56,15.56,0,0,0-15.73-15.72,15.28,15.28,0,0,0-15.72,15.72c0,8.58,6.68,15.25,15.72,15.25a15.46,15.46,0,0,0,15.73-15.25Z"/><path class="cls-4" d="M16.2,109.08A15.56,15.56,0,0,1,31.92,93.36a15.27,15.27,0,0,1,15.72,15.72c0,8.58-6.66,15.25-15.72,15.25A15.47,15.47,0,0,1,16.2,109.08Z"/><polygon class="cls-4" points="100.05 140.05 105.75 143.38 111.48 146.71 111.48 152.9 111.48 159.58 105.75 162.91 100.05 166.25 94.81 162.91 89.08 159.58 89.08 152.9 89.08 146.71 94.81 143.38 100.05 140.05"/></g></g></svg>