<?xml version="1.0" encoding="utf-8"?>
<!-- Generator: Adobe Illustrator 24.3.0, SVG Export Plug-In . SVG Version: 6.00 Build 0)  -->
<svg version="1.1" id="Layer_1" xmlns="http://www.w3.org/2000/svg" xmlns:xlink="http://www.w3.org/1999/xlink" x="0px" y="0px"
	 viewBox="0 0 512 512" style="enable-background:new 0 0 512 512;" xml:space="preserve">
<style type="text/css">
	.st0{fill:#727270;}
	.st1{fill:#2AF598;}
</style>
<g>
	<path class="st0" d="M432.5,512h-37.8c-8,0-14.5-6.5-14.5-14.5s6.5-14.5,14.5-14.5h37.8c27.8,0,50.5-22.6,50.5-50.5V79.5
		c0-27.8-22.6-50.5-50.5-50.5H214.4c-8,0-14.5-6.5-14.5-14.5S206.3,0,214.4,0h218.1C476.3,0,512,35.7,512,79.5v352.9
		C512,476.3,476.3,512,432.5,512z"/>
	<path class="st0" d="M289.7,512H79.5C35.7,512,0,476.3,0,432.5V79.5C0,35.7,35.7,0,79.5,0h32.7c8,0,14.5,6.5,14.5,14.5
		S120.2,29,112.2,29H79.5C51.7,29,29,51.7,29,79.5v352.9c0,27.8,22.6,50.5,50.5,50.5h210.2c8,0,14.5,6.5,14.5,14.5
		S297.7,512,289.7,512z"/>
</g>
<path class="st1" d="M402.4,169.2l-37.6-14.3c-8-17.8-20.9-30.6-38.9-34.7c-52.5-12.2-80.2,37-74.5,72.1c0.8,4.9,2.1,9.7,4,14.1
	c-4.7,0.6-73.2,7.7-132.1-37.7c-4.6-3.6-11.4-0.9-12.5,4.8c-3.2,16.1-2.4,45.3,35.4,69.1c0,0-7.5,0.9-16.8-0.6
	c-6-0.9-10.8,4.7-8.8,10.4c5.3,15.4,19.5,38.6,57.2,41.3c0,0-5.5,3.1-15.4,4.8c-6,1-8.7,8.1-4.9,12.8c9,11.1,26.9,25.6,58,23.1
	c0,0,2.2,25.7-88.9,41.6c0,0,45.8,17.9,100.7,17.9c152.3,0,152.4-127.3,146.6-201.3L402.4,169.2z"/>
<path class="st0" d="M227.2,408.3c-29.8,0-56.9-5.1-74.4-9.3c-9.9-2.4-17.9-4.8-22.8-6.4c-10-3.3-17.3-5.6-18-15.5
	c-0.6-7.5,4.6-14.1,12-15.4c29.4-5.1,47.7-11.1,59-16.3c-14.5-4.5-27.2-13-36.9-25c-4.8-6-6.2-14-3.8-21.2
	c-21.5-11.1-31.3-29.6-35.5-42c-2.4-6.9-1.3-14.5,2.9-20.4c1-1.3,2.1-2.6,3.3-3.7c-20.7-24.8-18.9-50.7-16.5-62.5
	c2.1-10.5,11.4-18.1,22.1-18.1c4.9,0,9.6,1.6,13.6,4.6c38.1,29.4,80.7,34.9,104.7,35.4c-2.9-22,4.4-46.2,19.3-63.7
	c13.8-16.2,33-25.1,54-25.1c6.2,0,12.7,0.8,19.2,2.3c19.8,4.6,35.7,17.5,46.1,37.3l32.2,12.3c4.8,1.8,8.3,6.1,9.2,11.3
	c0.8,5.1-1.1,10.3-5.2,13.6L388.9,199c3.7,54.3,1.4,120.1-39.7,164.5C321.7,393.2,280.7,408.3,227.2,408.3z M185.2,375.8
	c12.8,2,27.1,3.4,42,3.4c45,0,78.9-11.9,100.7-35.5c35.4-38.2,35.4-100.3,31.5-150.1c-0.4-4.8,1.6-9.4,5.3-12.4l9.1-7.4l-14.1-5.4
	c-3.6-1.4-6.5-4.1-8.1-7.6c-6.5-14.7-16.3-23.6-28.9-26.5c-4.3-1-8.6-1.5-12.6-1.5c-15.9,0-26.1,8.1-31.9,14.9
	c-9.8,11.5-14.7,28.1-12.4,42.3c0.6,3.8,1.6,7.4,3.1,10.9c1.7,4.2,1.4,9-0.9,12.9s-6.3,6.5-10.8,7.1c-1.6,0.2-7.7,0.8-16.9,0.8
	c-25,0-72-4.7-116.1-34.5c0.5,13.1,7.3,28.9,29.8,43.1c5.2,3.3,7.8,9.5,6.4,15.5c-1.3,6-6.3,10.5-12.4,11.2
	c-0.5,0.1-3.4,0.4-7.6,0.4c-0.5,0-1.1,0-1.6,0c7.9,13.2,21.3,20.6,40.1,21.9c6.4,0.4,11.7,5,13.1,11.2c1.4,6.2-1.4,12.7-6.9,15.8
	c-0.8,0.4-3.6,2-8.3,3.6c7.2,5.6,17.4,10.2,31.7,10.2c1.9,0,3.9-0.1,5.9-0.2c8-0.7,15,5.3,15.7,13.2c0.3,3.4,0,15.3-15.8,27.6
	C206.8,366.2,197.2,371.3,185.2,375.8z"/>
</svg>
